<?xml version="1.0" standalone="no"?>
<!DOCTYPE svg PUBLIC "-//W3C//DTD SVG 20010904//EN"
 "http://www.w3.org/TR/2001/REC-SVG-20010904/DTD/svg10.dtd">
<svg version="1.0" xmlns="http://www.w3.org/2000/svg"
 width="392.000000pt" height="301.000000pt" viewBox="0 0 392.000000 301.000000"
 preserveAspectRatio="xMidYMid meet">

<g transform="translate(0.000000,301.000000) scale(0.100000,-0.100000)"
fill="#000000" stroke="none">
<path d="M2270 2844 c-19 -2 -98 -8 -175 -14 -347 -27 -767 -120 -1060 -237
-202 -80 -366 -170 -518 -282 -102 -76 -104 -72 61 -90 62 -7 194 -23 295 -36
l182 -23 111 64 c610 349 1350 494 2244 438 l95 -6 23 32 c13 17 22 33 20 36
-9 8 -197 45 -353 69 -277 42 -736 66 -925 49z"/>
<path d="M2182 2227 c-27 -29 -28 -37 -3 -37 40 0 290 -71 403 -114 307 -117
514 -271 603 -449 19 -39 35 -75 35 -82 0 -7 35 -33 78 -58 169 -98 370 -215
417 -245 l50 -31 9 22 c5 12 9 69 9 127 1 177 -51 291 -198 435 -256 252 -665
392 -1316 449 -59 6 -67 4 -87 -17z"/>
<path d="M196 1957 c-52 -112 -60 -147 -60 -272 0 -114 1 -124 33 -198 110
-258 381 -453 805 -582 184 -55 467 -105 693 -121 l92 -7 11 27 c5 15 10 29
10 31 0 2 -26 9 -57 15 -107 21 -277 71 -383 112 -408 159 -632 387 -632 643
0 89 22 168 73 264 22 40 38 75 37 76 -2 1 -57 7 -123 13 -155 15 -401 40
-443 46 -30 5 -33 2 -56 -47z"/>
<path d="M1420 1979 c-72 -29 -130 -139 -130 -248 0 -57 25 -146 52 -183 44
-63 70 -72 221 -78 123 -5 140 -7 153 -25 20 -28 27 -60 20 -91 -11 -44 -55
-54 -246 -54 l-170 0 0 -90 0 -90 220 0 c242 0 263 4 314 58 32 34 66 141 66
207 0 66 -34 173 -66 207 -44 46 -81 57 -220 64 -143 8 -164 18 -164 77 0 67
10 72 184 75 l156 3 0 90 0 89 -182 -1 c-101 0 -194 -5 -208 -10z"/>
<path d="M1980 1556 l0 -436 85 0 85 0 0 155 0 155 84 0 c129 0 148 -22 169
-200 l12 -105 94 -3 c80 -2 93 -1 88 12 -4 9 -9 50 -12 93 -11 141 -43 243
-81 257 -15 6 -14 10 9 34 75 78 96 244 45 354 -19 41 -38 64 -70 85 l-43 28
-232 3 -233 3 0 -435z m407 228 c22 -22 25 -32 21 -75 -8 -76 -20 -83 -148
-87 l-110 -4 0 96 0 96 105 0 c100 0 107 -1 132 -26z"/>
<path d="M3172 1223 c-180 -351 -772 -677 -1487 -817 -265 -52 -438 -68 -735
-70 -151 0 -318 1 -370 4 -90 5 -95 4 -98 -15 -3 -19 11 -23 150 -52 305 -64
505 -85 808 -85 753 0 1511 222 1965 576 78 62 235 218 235 234 0 5 -87 57
-192 117 -106 60 -207 117 -225 128 l-32 18 -19 -38z"/>
</g>
</svg>
